<svg width="55" height="55" viewBox="0 0 55 55" fill="none" xmlns="http://www.w3.org/2000/svg">
<path d="M0 0H55V55H0V0Z" fill="#6363DD"/>
<g style="mix-blend-mode:hard-light">
<path d="M42.9473 34.5864V6.89844H48.1035V34.5864C48.1035 37.1646 47.5754 39.3398 46.519 41.1123C45.4627 42.8848 44.0036 44.2365 42.1416 45.1675C40.2975 46.0806 38.1759 46.5371 35.7769 46.5371C33.3778 46.5371 31.2472 46.1253 29.3853 45.3018C27.5233 44.4782 26.0641 43.2249 25.0078 41.542C23.9515 39.859 23.4233 37.7375 23.4233 35.1772H28.6064C28.6064 36.8244 28.9108 38.1761 29.5195 39.2324C30.1283 40.2887 30.9697 41.0675 32.0439 41.5688C33.1361 42.0701 34.3804 42.3208 35.7769 42.3208C37.1375 42.3208 38.355 42.0343 39.4292 41.4614C40.5213 40.8706 41.3807 40.0023 42.0073 38.8564C42.634 37.6927 42.9473 36.2694 42.9473 34.5864Z" fill="white"/>
</g>
</svg>
