<svg width="55" height="55" viewBox="0 0 55 55" fill="none" xmlns="http://www.w3.org/2000/svg">
<path d="M0 0H55V55H0V0Z" fill="#6363DD"/>
<g style="mix-blend-mode:hard-light">
<path d="M37.9473 34.5864V6.89844H43.1035V34.5864C43.1035 37.1646 42.5754 39.3398 41.519 41.1123C40.4627 42.8848 39.0036 44.2365 37.1416 45.1675C35.2975 46.0806 33.1759 46.5371 30.7769 46.5371C28.3778 46.5371 26.2472 46.1253 24.3853 45.3018C22.5233 44.4782 21.0641 43.2249 20.0078 41.542C18.9515 39.859 18.4233 37.7375 18.4233 35.1772H23.6064C23.6064 36.8244 23.9108 38.1761 24.5195 39.2324C25.1283 40.2887 25.9697 41.0675 27.0439 41.5688C28.1361 42.0701 29.3804 42.3208 30.7769 42.3208C32.1375 42.3208 33.355 42.0343 34.4292 41.4614C35.5213 40.8706 36.3807 40.0023 37.0073 38.8564C37.634 37.6927 37.9473 36.2694 37.9473 34.5864Z" fill="white"/>
</g>
</svg>
